<svg id="圖層_1" height="512" viewBox="0 0 512 512" width="512" xmlns="http://www.w3.org/2000/svg"><path d="m503.744 388.34h-22.42v-303.743c0-4.57-3.69-8.258-8.254-8.258h-434.163c-4.567 0-8.262 3.688-8.262 8.258v303.743h-22.386c-4.563 0-8.258 3.688-8.258 8.256v30.807c0 4.561 3.694 8.258 8.258 8.258h495.485c4.563 0 8.255-3.697 8.255-8.258v-30.807c0-4.569-3.691-8.256-8.255-8.256zm-456.579-295.488h417.644v295.488h-273.418c1.773-3.922 2.852-8.264 2.852-12.904v-16.953c0-16.242-12.096-29.453-26.964-29.453h-55.676c-14.875 0-26.971 13.211-26.971 29.453v16.953c0 4.641 1.077 8.982 2.854 12.904h-40.321zm130.564 278.371s1.963 16.998-10.451 17.117h-55.676c-12.04-.26-10.452-17.117-10.452-17.117zm-76.113-16.516c1.335-5.24 5.371-9.158 9.986-9.158h55.676c4.611 0 8.645 3.918 9.982 9.158zm393.874 64.438h-478.97v-14.291h478.97z"/></svg>