<?xml version="1.0" encoding="iso-8859-1"?>
<!-- Generator: Adobe Illustrator 19.0.0, SVG Export Plug-In . SVG Version: 6.00 Build 0)  -->
<svg version="1.1" id="Capa_1" xmlns="http://www.w3.org/2000/svg" xmlns:xlink="http://www.w3.org/1999/xlink" x="0px" y="0px"
	 viewBox="0 0 512 512" style="enable-background:new 0 0 512 512;" xml:space="preserve">
<path id="SVGCleanerId_0" d="M503.467,59.733H8.533C3.823,59.733,0,63.556,0,68.267v375.467c0,4.71,3.823,8.533,8.533,8.533h494.933
	c4.71,0,8.533-3.823,8.533-8.533V68.267C512,63.556,508.177,59.733,503.467,59.733z M29.133,401.067L46.199,384h22.067v17.067
	H29.133z M465.801,93.867H46.199L29.133,76.8h453.734L465.801,93.867z M224.879,358.929l4.949-4.958l31.693,38.033l-4.949,4.958
	L224.879,358.929z M236.962,335.889c-3.012-3.618-8.397-4.113-12.015-1.101c-0.196,0.171-0.393,0.341-0.58,0.529l-11.622,11.622
	c-1.22-3.345-4.386-5.581-7.945-5.606h-128c-4.71,0-8.533,3.823-8.533,8.533v17.067H51.2v-256h409.6v256H262.827L236.962,335.889z
	 M34.133,105.933v266.001l-17.067,17.067V88.866L34.133,105.933z M85.333,358.4H102.4v42.667H85.333V358.4z M119.467,358.4h42.667
	v42.667h-42.667V358.4z M179.2,358.4h17.067v42.667H179.2V358.4z M213.333,384h10.24l14.225,17.067h-24.465V384z M279.629,387.072
	l-2.56-3.072h188.732l17.067,17.067H276.599l2.5-2.5C282.223,395.452,282.453,390.468,279.629,387.072z M477.867,371.934V105.933
	l17.067-17.067v300.134L477.867,371.934z M17.067,435.2v-17.067h477.867V435.2H17.067z"/>
<polygon style="fill:#4398D1;" points="469.333,102.4 503.467,68.267 8.533,68.267 42.667,102.4 "/>
<polygon style="fill:#3E8CC7;" points="469.333,102.4 469.333,375.467 503.467,409.6 503.467,68.267 "/>
<rect x="42.667" y="102.4" style="fill:#126099;" width="426.667" height="273.067"/>
<polygon style="fill:#115991;" points="469.333,147.541 128,375.467 469.333,375.467 "/>
<g>
	<polygon style="fill:#4398D1;" points="42.667,102.4 8.533,68.267 8.533,409.6 42.667,375.467 	"/>
	<rect x="8.533" y="409.6" style="fill:#4398D1;" width="494.933" height="34.133"/>
</g>
<polygon style="fill:#3E8CC7;" points="42.667,375.467 8.533,409.6 503.467,409.6 469.333,375.467 "/>
<rect x="76.8" y="349.867" style="fill:#C74436;" width="128" height="59.733"/>
<rect x="110.933" y="349.867" style="fill:#DE4C3C;" width="59.733" height="59.733"/>
<polygon style="fill:#EBEBEB;" points="213.333,358.4 256,409.6 273.067,392.533 230.4,341.333 "/>
<g>
	<path id="SVGCleanerId_0_1_" d="M503.467,59.733H8.533C3.823,59.733,0,63.556,0,68.267v375.467c0,4.71,3.823,8.533,8.533,8.533
		h494.933c4.71,0,8.533-3.823,8.533-8.533V68.267C512,63.556,508.177,59.733,503.467,59.733z M29.133,401.067L46.199,384h22.067
		v17.067H29.133z M465.801,93.867H46.199L29.133,76.8h453.734L465.801,93.867z M224.879,358.929l4.949-4.958l31.693,38.033
		l-4.949,4.958L224.879,358.929z M236.962,335.889c-3.012-3.618-8.397-4.113-12.015-1.101c-0.196,0.171-0.393,0.341-0.58,0.529
		l-11.622,11.622c-1.22-3.345-4.386-5.581-7.945-5.606h-128c-4.71,0-8.533,3.823-8.533,8.533v17.067H51.2v-256h409.6v256H262.827
		L236.962,335.889z M34.133,105.933v266.001l-17.067,17.067V88.866L34.133,105.933z M85.333,358.4H102.4v42.667H85.333V358.4z
		 M119.467,358.4h42.667v42.667h-42.667V358.4z M179.2,358.4h17.067v42.667H179.2V358.4z M213.333,384h10.24l14.225,17.067h-24.465
		V384z M279.629,387.072l-2.56-3.072h188.732l17.067,17.067H276.599l2.5-2.5C282.223,395.452,282.453,390.468,279.629,387.072z
		 M477.867,371.934V105.933l17.067-17.067v300.134L477.867,371.934z M17.067,435.2v-17.067h477.867V435.2H17.067z"/>
</g>
<g>
</g>
<g>
</g>
<g>
</g>
<g>
</g>
<g>
</g>
<g>
</g>
<g>
</g>
<g>
</g>
<g>
</g>
<g>
</g>
<g>
</g>
<g>
</g>
<g>
</g>
<g>
</g>
<g>
</g>
</svg>
