<svg xmlns="http://www.w3.org/2000/svg" version="1.1" xmlns:xlink="http://www.w3.org/1999/xlink" xmlns:svgjs="http://svgjs.com/svgjs" width="512" height="512" x="0" y="0" viewBox="0 0 512 512" style="enable-background:new 0 0 512 512" xml:space="preserve" class=""><g><path fill="#067549" d="M37.233 82.218h438.634V402.76H37.233z" data-original="#013822"></path><path fill="#a87b4f" d="M8.749 396.283h492.835v31.832H8.749z" data-original="#a87b4f" class=""></path><path fill="#e4dcc9" d="M187.809 375.25c0 12.016-8.697 21.865-19.334 21.865h-57.521c-10.637 0-19.334-9.85-19.334-21.865v-17.516c0-12.033 8.697-21.898 19.334-21.898h57.521c10.637 0 19.334 9.865 19.334 21.898z" data-original="#e4dcc9"></path><path fill="#e63431" d="M168.892 338.335h-57.521c-10.637 0-19.334 9.866-19.334 21.899v4.631h96.19v-4.631c-.001-12.033-8.698-21.899-19.335-21.899z" data-original="#e63431"></path><path d="M503.745 388.34h-22.42V84.597c0-4.57-3.69-8.258-8.254-8.258H38.909a8.249 8.249 0 0 0-8.261 8.258V388.34H8.261A8.253 8.253 0 0 0 0 396.596v30.807a8.259 8.259 0 0 0 8.261 8.258h495.484a8.254 8.254 0 0 0 8.255-8.258v-30.807a8.246 8.246 0 0 0-8.255-8.256zM47.164 92.852H464.81V388.34H191.39c1.777-3.922 2.852-8.264 2.852-12.904v-16.953c0-16.242-12.096-29.453-26.964-29.453h-55.672c-14.875 0-26.97 13.211-26.97 29.453v16.953c0 4.641 1.074 8.982 2.851 12.904H47.164zm130.568 278.371s1.959 16.998-10.455 17.117h-55.672c-12.043-.26-10.455-17.117-10.455-17.117zm-76.113-16.516c1.334-5.24 5.371-9.159 9.986-9.159h55.672c4.615 0 8.645 3.919 9.986 9.159zm393.872 64.438H16.522v-14.291h478.969z" fill="#000000" data-original="#000000"></path></g></svg>