<svg clip-rule="evenodd" fill-rule="evenodd" height="512" stroke-linejoin="round" stroke-miterlimit="2" viewBox="0 0 32 32" width="512" xmlns="http://www.w3.org/2000/svg"><path d="m4 20.534v3.955l24-.027v-3.928l-12-8.515z" fill="#be9200"/><path d="m18.5 17h-5v5h5zm-4.505-7.529c0-1.107.898-2.006 2.005-2.006s2.005.899 2.005 2.006v.935l11.995 8.531v3.016l-14-9.934-14 9.934v-3.031l11.995-8.516s0 .172 0-.935z" fill="#be0902"/><path d="m2.289 22.395c-.152.109-.352.123-.518.037-.167-.086-.271-.257-.271-.444v-3.031c0-.162.078-.314.211-.408 0 0 11.784-8.367 11.784-8.367v-.676c0-1.383 1.122-2.506 2.505-2.506s2.505 1.123 2.505 2.506v.677l11.785 8.382c.132.093.21.245.21.407v3.016c0 .187-.104.358-.271.444-.166.086-.366.072-.518-.037l-1.211-.859v2.964c0 .276-.224.499-.499.5h-24.002c-.275-.001-.499-.224-.499-.5v-2.964l-1.211.859zm2.211 1.605v-3.173l11.5-8.16 11.5 8.16v3.173zm14.5-7c0-.276-.224-.5-.5-.5h-5c-.276 0-.5.224-.5.5v5c0 .276.224.5.5.5h5c.276 0 .5-.224.5-.5zm-1 2.989h-1.5v1.511h1.5zm-2.5 1.511v-1.511h-1.5v1.511zm.5-13.511c-.831 0-1.505.674-1.505 1.505v.935c0 .162-.079.314-.211.408 0 0-11.784 8.367-11.784 8.367v1.804l13.211-9.374c.173-.123.405-.123.578 0 0 0 13.211 9.374 13.211 9.374v-1.79l-11.785-8.382c-.131-.093-.21-.245-.21-.407 0 0 0 0 0-.935 0-.831-.675-1.505-1.505-1.505zm.5 9.511v1.489h1.5v-1.489zm-2.5 1.489h1.5v-1.489h-1.5z"/></svg>