<?xml version="1.0" encoding="UTF-8" standalone="no"?>
<svg
   id="a"
   viewBox="0 0 438.91699 96.797162"
   version="1.1"
   sodipodi:docname="roof6.svg"
   width="438.91699"
   height="96.797165"
   inkscape:version="1.2.2 (732a01da63, 2022-12-09)"
   xmlns:inkscape="http://www.inkscape.org/namespaces/inkscape"
   xmlns:sodipodi="http://sodipodi.sourceforge.net/DTD/sodipodi-0.dtd"
   xmlns="http://www.w3.org/2000/svg"
   xmlns:svg="http://www.w3.org/2000/svg">
  <sodipodi:namedview
     id="namedview45"
     pagecolor="#ffffff"
     bordercolor="#000000"
     borderopacity="0.25"
     inkscape:showpageshadow="2"
     inkscape:pageopacity="0.0"
     inkscape:pagecheckerboard="0"
     inkscape:deskcolor="#d1d1d1"
     showgrid="false"
     inkscape:zoom="2.0058594"
     inkscape:cx="219.35735"
     inkscape:cy="48.856864"
     inkscape:window-width="3440"
     inkscape:window-height="1377"
     inkscape:window-x="-8"
     inkscape:window-y="-8"
     inkscape:window-maximized="1"
     inkscape:current-layer="a" />
  <defs
     id="defs4">
    <style
       id="style2">.b{fill:none;stroke:#1a1a1a;stroke-linecap:round;stroke-linejoin:round;stroke-width:10px;}.c{fill:#c6640c;}.d{fill:#ad5207;}.e{fill:#dd1d35;}.f{fill:#f4313f;}</style>
  </defs>
  <g
     id="g22"
     transform="matrix(1.0036977,0,0,0.70634378,-37.488109,-132.42533)">
    <g
       id="g12">
      <polygon
         class="e"
         points="73.52,305.46 42.35,319.21 42.35,286.79 73.52,273.02 256,192.48 438.48,273.02 469.65,286.79 469.65,319.21 438.48,305.46 256,224.9 "
         id="polygon6" />
      <polygon
         class="f"
         points="73.52,293.46 42.35,307.21 42.35,286.79 73.52,273.02 256,192.48 438.48,273.02 469.65,286.79 469.65,307.21 438.48,293.46 256,212.9 "
         id="polygon8" />
      <polygon
         class="b"
         points="73.52,305.46 42.35,319.21 42.35,286.79 73.52,273.02 256,192.48 438.48,273.02 469.65,286.79 469.65,319.21 438.48,305.46 256,224.9 "
         id="polygon10" />
    </g>
    <g
       id="g20">
      <polygon
         class="c"
         points="256,224.9 438.48,305.46 438.48,319.52 256,238.98 73.52,319.52 73.52,305.46 "
         id="polygon14" />
      <polygon
         class="d"
         points="256,224.9 438.48,305.46 438.48,319.52 256,238.98 73.52,319.52 73.52,305.46 "
         id="polygon16" />
      <polygon
         class="b"
         points="256,224.9 438.48,305.46 438.48,319.52 256,238.98 73.52,319.52 73.52,305.46 "
         id="polygon18" />
    </g>
  </g>
  <g
     id="g42"
     transform="matrix(0.53357877,0,0,0.59361608,111.21268,-110.76698)">
    <polygon
       class="d"
       points="414.74,215.79 414.74,262.54 359.98,238.38 359.98,215.79 "
       id="polygon24" />
    <polygon
       class="c"
       points="414.74,226.07 414.74,251.03 359.98,226.86 359.98,226.07 "
       id="polygon26" />
    <polygon
       class="c"
       points="414.74,226.07 414.74,251.03 359.98,226.86 359.98,226.07 "
       id="polygon28" />
    <polygon
       class="c"
       points="414.74,226.07 414.74,251.03 359.98,226.86 359.98,226.07 "
       id="polygon30" />
    <path
       class="e"
       d="m 432.44,204.14 c 0,6.44 -5.22,11.66 -11.65,11.66 h -66.86 c -3.22,0 -6.13,-1.31 -8.25,-3.41 -2.1,-2.12 -3.41,-5.03 -3.41,-8.25 0,-1.22 0.19,-2.39 0.54,-3.5 1.48,-4.73 5.9,-8.16 11.12,-8.16 h 66.86 c 3.21,0 6.13,1.31 8.24,3.41 1.31,1.32 2.31,2.94 2.88,4.75 0.35,1.11 0.53,2.28 0.53,3.5 z"
       id="path32" />
    <path
       class="f"
       d="m 431.91,200.64 c -1.49,4.73 -5.91,8.16 -11.12,8.16 h -66.86 c -3.22,0 -6.13,-1.31 -8.25,-3.41 -1.31,-1.32 -2.31,-2.94 -2.87,-4.75 1.48,-4.73 5.9,-8.16 11.12,-8.16 h 66.86 c 3.21,0 6.13,1.31 8.24,3.41 1.31,1.32 2.31,2.94 2.88,4.75 z"
       id="path34" />
    <g
       id="g40">
      <polygon
         class="b"
         points="414.74,215.79 414.74,262.54 359.98,238.38 359.98,215.79 "
         id="polygon36" />
      <path
         class="b"
         d="m 432.44,204.14 c 0,6.44 -5.22,11.66 -11.65,11.66 h -66.86 c -3.22,0 -6.13,-1.31 -8.25,-3.41 -2.1,-2.12 -3.41,-5.03 -3.41,-8.25 0,-6.44 5.22,-11.66 11.66,-11.66 h 66.86 c 3.21,0 6.13,1.31 8.24,3.41 2.11,2.12 3.41,5.03 3.41,8.25 z"
         id="path38" />
    </g>
  </g>
</svg>
