<?xml version="1.0" encoding="UTF-8" standalone="no"?>
<svg
   id="Layer_1"
   data-name="Layer 1"
   viewBox="0 0 645.75903 203.85796"
   version="1.1"
   sodipodi:docname="logo2.svg"
   inkscape:version="1.2.2 (732a01da63, 2022-12-09)"
   width="645.75903"
   height="203.85796"
   xmlns:inkscape="http://www.inkscape.org/namespaces/inkscape"
   xmlns:sodipodi="http://sodipodi.sourceforge.net/DTD/sodipodi-0.dtd"
   xmlns="http://www.w3.org/2000/svg"
   xmlns:svg="http://www.w3.org/2000/svg">
  <sodipodi:namedview
     id="namedview119"
     pagecolor="#ffffff"
     bordercolor="#000000"
     borderopacity="0.25"
     inkscape:showpageshadow="2"
     inkscape:pageopacity="0.0"
     inkscape:pagecheckerboard="0"
     inkscape:deskcolor="#d1d1d1"
     showgrid="false"
     inkscape:zoom="1.3533313"
     inkscape:cx="756.65138"
     inkscape:cy="198.76877"
     inkscape:window-width="3440"
     inkscape:window-height="1377"
     inkscape:window-x="-8"
     inkscape:window-y="-8"
     inkscape:window-maximized="1"
     inkscape:current-layer="Layer_1" />
  <defs
     id="defs4">
    <style
       id="style2">.cls-1{fill:#0b3a68;}.cls-2,.cls-3,.cls-4{fill:#df1d27;}.cls-2{stroke:#df1d27;stroke-miterlimit:10;stroke-width:0.91px;}.cls-4{fill-rule:evenodd;}</style>
  </defs>
  <path
     class="cls-1"
     d="m 169.00694,173.6498 v -34.09883 h 14.84352 v 4.81912 h -7.93488 v 9.0246 h 6.14689 v 4.85615 h -6.12573 v 10.66448 h 7.99836 v 4.76093 z m 5.54913,-37.02945 2.54974,-8.46387 h 6.48015 l -5.20528,8.46387 z"
     id="path6"
     style="stroke-width:0.528992" />
  <path
     class="cls-1"
     d="m 190.58982,173.6498 v -34.09883 h 8.61728 a 22.434554,22.434554 0 0 1 4.66571,0.42319 9.945051,9.945051 0 0 1 3.4649,1.42828 6.0992786,6.0992786 0 0 1 2.26408,2.79837 11.426229,11.426229 0 0 1 0.75117,4.40121 12.833348,12.833348 0 0 1 -0.93631,5.32166 6.2579762,6.2579762 0 0 1 -3.22157,3.08932 l 4.71332,16.6368 h -7.07791 l -3.90396,-15.38309 h -2.40163 v 15.38309 z m 6.92979,-19.57271 h 1.72452 q 2.51271,0 3.56012,-1.18494 1.0474,-1.18494 1.05798,-3.77172 c 0,-1.68748 -0.30153,-2.92003 -0.91516,-3.70294 -0.61363,-0.78291 -1.70864,-1.16378 -3.30091,-1.16378 h -2.11597 z"
     id="path8"
     style="stroke-width:0.528992" />
  <path
     class="cls-1"
     d="m 218.11857,173.6498 v -34.09883 h 14.8488 v 4.81912 h -7.93488 v 9.0246 h 6.14689 v 4.85615 h -6.14689 v 10.66448 h 7.99836 v 4.76093 z"
     id="path10"
     style="stroke-width:0.528992" />
  <path
     class="cls-1"
     d="m 242.92829,173.6498 v -28.97819 h -5.44861 v -5.12064 h 17.74768 v 5.12064 h -5.36927 v 28.97819 z"
     id="path12"
     style="stroke-width:0.528992" />
  <path
     class="cls-1"
     d="m 264.43182,173.6498 v -28.97819 h -5.44862 v -5.12064 h 17.74769 v 5.12064 h -5.36927 v 28.97819 z"
     id="path14"
     style="stroke-width:0.528992" />
  <path
     class="cls-1"
     d="m 291.54796,174.09944 q -4.76093,0 -7.09379,-2.61322 -2.33285,-2.61322 -2.54974,-8.01952 l 6.00406,-1.05799 c 0.0265,2.11597 0.3121,3.70295 0.85168,4.80325 a 2.6449604,2.6449604 0 0 0 2.50213,1.61343 1.9890102,1.9890102 0 0 0 1.75625,-0.78291 3.4225787,3.4225787 0 0 0 0.529,-2.01546 6.1521778,6.1521778 0 0 0 -0.87284,-3.38026 15.039245,15.039245 0 0 0 -2.80895,-3.05757 l -3.66062,-3.17396 a 18.419504,18.419504 0 0 1 -2.25351,-2.27466 9.273231,9.273231 0 0 1 -1.43886,-2.69257 10.68035,10.68035 0 0 1 -0.58189,-3.62889 q 0,-4.13671 2.44394,-6.40609 2.44395,-2.26938 6.72349,-2.29054 a 11.293981,11.293981 0 0 1 2.64496,0.28566 7.5434269,7.5434269 0 0 1 2.0472,0.78291 6.136308,6.136308 0 0 1 1.50763,1.23255 7.6545153,7.6545153 0 0 1 1.05798,1.52879 10.389404,10.389404 0 0 1 0.69827,1.79328 14.04474,14.04474 0 0 1 0.41262,1.8885 c 0.0794,0.59776 0.14282,1.24313 0.17985,1.94669 l -5.96174,0.9469 c -0.0265,-0.70356 -0.0582,-1.28545 -0.10051,-1.75097 a 10.727959,10.727959 0 0 0 -0.23804,-1.44943 3.5706965,3.5706965 0 0 0 -0.46022,-1.17437 2.2535062,2.2535062 0 0 0 -0.78291,-0.68769 2.1900272,2.1900272 0 0 0 -1.17437,-0.22746 2.269376,2.269376 0 0 0 -1.77741,0.8887 3.1739524,3.1739524 0 0 0 -0.6295,1.9943 6.0675391,6.0675391 0 0 0 0.21689,1.67162 4.5916512,4.5916512 0 0 0 0.70885,1.43357 11.415649,11.415649 0 0 0 0.89399,1.08972 c 0.26979,0.27508 0.65595,0.64537 1.16379,1.11088 l 3.59714,3.12635 a 22.328755,22.328755 0 0 1 2.00488,1.9943 15.790413,15.790413 0 0 1 1.61872,2.2006 10.220127,10.220127 0 0 1 1.15849,2.71373 11.865292,11.865292 0 0 1 0.40203,3.14222 8.204667,8.204667 0 0 1 -2.41749,6.10986 q -2.39104,2.39104 -6.32145,2.38575 z"
     id="path16"
     style="stroke-width:0.528992" />
  <path
     class="cls-1"
     d="m 307.10561,173.6498 v -34.09883 h 14.84881 v 4.81912 h -7.93488 v 9.0246 h 6.15218 v 4.85615 h -6.13631 v 10.66448 h 8.00365 v 4.76093 z m 5.55442,-37.02945 2.54974,-8.46387 h 6.47486 l -5.19999,8.46387 z"
     id="path18"
     style="stroke-width:0.528992" />
  <path
     class="cls-1"
     d="m 337.43273,174.1206 a 10.410564,10.410564 0 0 1 -4.34303,-0.82523 6.7710985,6.7710985 0 0 1 -2.87771,-2.40162 10.902527,10.902527 0 0 1 -1.54995,-3.70295 22.090709,22.090709 0 0 1 -0.48667,-4.90375 v -11.21993 a 24.777989,24.777989 0 0 1 0.30152,-4.0891 12.235587,12.235587 0 0 1 1.01567,-3.3062 7.5540068,7.5540068 0 0 1 1.86734,-2.47569 8.0671291,8.0671291 0 0 1 2.84598,-1.52349 13.34118,13.34118 0 0 1 3.98331,-0.529 13.99184,13.99184 0 0 1 4.58636,0.66653 6.7181993,6.7181993 0 0 1 3.03112,2.00488 8.2416965,8.2416965 0 0 1 1.62401,3.12635 15.451858,15.451858 0 0 1 0.50254,4.1949 v 1.93082 h -6.73936 v -2.30111 c 0,-0.6295 0,-1.14791 -0.0423,-1.54466 a 6.8451574,6.8451574 0 0 0 -0.20631,-1.24313 2.4545232,2.4545232 0 0 0 -0.4708,-1.01566 2.2746659,2.2746659 0 0 0 -0.85168,-0.60834 3.3855493,3.3855493 0 0 0 -1.34893,-0.23805 3.0205447,3.0205447 0 0 0 -1.41769,0.30152 2.4386535,2.4386535 0 0 0 -0.88342,0.71943 3.1739524,3.1739524 0 0 0 -0.48667,1.17966 7.5487169,7.5487169 0 0 0 -0.20102,1.35951 c 0,0.39674 -0.0317,0.91515 -0.0317,1.56052 v 14.81178 a 8.3580747,8.3580747 0 0 0 0.67711,3.78758 c 0.44964,0.86226 1.29603,1.29603 2.52858,1.29603 1.23255,0 2.11597,-0.46551 2.60264,-1.39125 a 8.6596002,8.6596002 0 0 0 0.73001,-3.95686 v -3.35381 h -3.35381 v -4.27425 h 9.6065 v 17.54138 h -4.51759 l -0.45494,-3.12635 q -1.56581,3.54954 -5.63905,3.54954 z"
     id="path20"
     style="stroke-width:0.528992" />
  <path
     class="cls-1"
     d="m 356.01093,173.6498 v -34.09883 h 6.8769 v 34.09883 z"
     id="path22"
     style="stroke-width:0.528992" />
  <path
     class="cls-1"
     d="m 370.05038,173.6498 v -4.34303 l 8.61728,-25.00545 h -8.24699 v -4.76093 h 15.19795 v 3.66062 l -8.94526,25.71431 h 8.99286 v 4.76093 z"
     id="path24"
     style="stroke-width:0.528992" />
  <path
     class="cls-1"
     d="m 395.66417,173.6498 v -28.97819 h -5.44861 v -5.12064 h 17.74768 v 5.12064 h -5.36927 v 28.97819 z"
     id="path26"
     style="stroke-width:0.528992" />
  <path
     class="cls-1"
     d="m 413.94085,173.6498 v -34.09883 h 14.84352 v 4.81912 h -7.93488 v 9.0246 h 6.14689 v 4.85615 h -6.12573 v 10.66448 h 7.99836 v 4.76093 z"
     id="path28"
     style="stroke-width:0.528992" />
  <path
     class="cls-1"
     d="m 438.74529,173.6498 v -28.97819 h -5.44862 v -5.12064 h 17.74768 v 5.12064 h -5.36397 v 28.97819 z"
     id="path30"
     style="stroke-width:0.528992" />
  <path
     class="cls-1"
     d="m 466.56498,174.09944 a 13.177193,13.177193 0 0 1 -4.72919,-0.75117 7.0514643,7.0514643 0 0 1 -3.11576,-2.24293 9.5218573,9.5218573 0 0 1 -1.6822,-3.50192 18.795088,18.795088 0 0 1 -0.52899,-4.76093 v -12.57414 a 18.69458,18.69458 0 0 1 0.52899,-4.76093 9.2891008,9.2891008 0 0 1 1.6822,-3.4649 7.141393,7.141393 0 0 1 3.11576,-2.20061 13.436399,13.436399 0 0 1 4.72919,-0.7353 q 5.41159,0 7.76561,2.81424 2.35401,2.81424 2.35401,8.33163 v 12.58472 q 0,5.50681 -2.35401,8.37923 -2.35402,2.87243 -7.76561,2.88301 z m -5.07303,-37.48967 2.23763,-8.63844 h 5.16826 l -4.19491,8.63315 z m 3.76642,32.23678 a 3.1739524,3.1739524 0 0 0 1.33306,0.25391 3.2638811,3.2638811 0 0 0 1.34893,-0.25391 2.3910442,2.3910442 0 0 0 0.88342,-0.65066 2.8618471,2.8618471 0 0 0 0.52899,-1.02625 5.9247112,5.9247112 0 0 0 0.23805,-1.22197 c 0.037,-0.39145 0.0529,-0.86226 0.0529,-1.41241 v -15.93324 c 0,-0.52899 0,-1.02095 -0.0529,-1.41241 a 5.670795,5.670795 0 0 0 -0.23805,-1.20081 2.7666285,2.7666285 0 0 0 -0.52899,-0.99979 2.4069139,2.4069139 0 0 0 -0.88342,-0.62421 3.3538097,3.3538097 0 0 0 -1.34893,-0.24863 3.2744609,3.2744609 0 0 0 -1.33306,0.24863 2.338145,2.338145 0 0 0 -0.86755,0.62421 2.8512673,2.8512673 0 0 0 -0.48138,1.01037 7.0144349,7.0144349 0 0 0 -0.22746,1.20081 c -0.0317,0.38617 -0.0476,0.85168 -0.0476,1.40183 v 15.9544 q 0,0.82523 0.0476,1.41241 a 7.141393,7.141393 0 0 0 0.22746,1.22197 2.9411959,2.9411959 0 0 0 0.48138,1.02625 2.3275651,2.3275651 0 0 0 0.8411,0.6295 z m 3.20569,-32.23678 2.64496,-8.63315 h 5.71312 l -5.05717,8.63315 z"
     id="path32"
     style="stroke-width:0.528992" />
  <path
     class="cls-2"
     d="M 186.50071,199.69737 V 183.9334 h 7.11494 v 1.16907 h -5.2476 v 5.90356 h 4.29542 v 1.10559 h -4.29542 v 6.50131 h 5.28992 v 1.11089 z m 3.12634,-17.09174 1.51821,-3.80345 h 1.7827 l -2.39104,3.80345 z"
     id="path34" />
  <path
     class="cls-2"
     d="m 195.98025,199.69737 v -11.25696 h 1.7827 v 1.54995 a 4.0309196,4.0309196 0 0 1 3.23743,-1.67161 2.3645946,2.3645946 0 0 1 0.31211,0 v 1.54465 a 2.7031495,2.7031495 0 0 0 -0.85697,-0.12695 3.1739524,3.1739524 0 0 0 -2.69257,1.3119 v 8.64373 z"
     id="path36" />
  <path
     class="cls-2"
     d="m 206.61828,199.87722 q -2.01546,0 -2.90946,-0.9945 -0.894,-0.99451 -0.894,-3.41729 v -2.84069 a 6.538342,6.538342 0 0 1 0.4232,-2.60793 2.5550317,2.5550317 0 0 1 1.23255,-1.35422 4.9672356,4.9672356 0 0 1 2.15829,-0.39145 5.4909377,5.4909377 0 0 1 1.51821,0.18514 2.9570657,2.9570657 0 0 1 1.05798,0.529 2.2905357,2.2905357 0 0 1 0.65595,0.92573 5.073034,5.073034 0 0 1 0.33855,1.29074 13.119003,13.119003 0 0 1 0.0952,1.70865 v 1.01566 h -5.69195 v 1.6822 a 5.2899207,5.2899207 0 0 0 0.4179,2.47568 1.6821948,1.6821948 0 0 0 1.58698,0.71943 1.9890102,1.9890102 0 0 0 1.42828,-0.4708 2.3222752,2.3222752 0 0 0 0.49725,-1.70336 v -0.78291 h 1.74567 v 0.6295 a 3.4648981,3.4648981 0 0 1 -0.85696,2.51801 c -0.57132,0.59247 -1.50234,0.88341 -2.80366,0.88341 z m -2.01546,-6.76581 h 3.93041 v -0.93102 c 0,-0.39675 0,-0.71943 -0.037,-0.98393 a 3.9039615,3.9039615 0 0 0 -0.14812,-0.77233 1.470598,1.470598 0 0 0 -0.3121,-0.60305 1.4388584,1.4388584 0 0 0 -0.56073,-0.35442 2.5603216,2.5603216 0 0 0 -0.85697,-0.13225 1.798573,1.798573 0 0 0 -1.58698,0.6295 c -0.29623,0.41791 -0.44435,1.21139 -0.44435,2.38576 z"
     id="path38" />
  <path
     class="cls-2"
     d="m 216.03963,199.84019 c -0.95748,0 -1.62401,-0.21159 -1.98372,-0.6295 a 2.8195277,2.8195277 0 0 1 -0.56074,-1.85147 v -7.96662 h -1.68748 v -0.95219 h 1.69806 v -3.48076 h 1.78271 v 3.48076 h 2.33814 v 0.95219 h -2.33814 v 7.83437 a 2.0101699,2.0101699 0 0 0 0.24862,1.17437 1.2431314,1.2431314 0 0 0 1.01038,0.31739 7.3000906,7.3000906 0 0 0 0.99979,-0.0741 v 1.05799 a 10.230707,10.230707 0 0 1 -1.50762,0.13753 z"
     id="path40" />
  <path
     class="cls-2"
     d="m 222.83188,199.84019 c -0.95747,0 -1.61871,-0.21159 -1.98372,-0.6295 a 2.7930781,2.7930781 0 0 1 -0.52899,-1.85147 v -7.96662 h -1.69806 v -0.95219 h 1.65045 v -3.48076 h 1.77742 v 3.48076 h 2.34343 v 0.95219 h -2.32227 v 7.83437 a 1.9625606,1.9625606 0 0 0 0.25391,1.17437 1.2378414,1.2378414 0 0 0 1.00509,0.31739 7.1837123,7.1837123 0 0 0 0.99979,-0.0741 v 1.05799 a 10.172518,10.172518 0 0 1 -1.49705,0.13753 z"
     id="path42" />
  <path
     class="cls-2"
     d="m 229.51834,199.87722 a 3.9515708,3.9515708 0 0 1 -2.6767,-0.86225 3.3802593,3.3802593 0 0 1 -1.14791,-2.33815 l 1.49705,-0.365 a 3.1739524,3.1739524 0 0 0 0.7353,1.8885 2.6449604,2.6449604 0 0 0 3.12634,0.16928 1.3859592,1.3859592 0 0 0 0.52899,-1.12676 v -0.0635 c 0,-0.74588 -0.59247,-1.49704 -1.70864,-2.24292 l -1.90966,-1.30661 a 5.7184043,5.7184043 0 0 1 -1.47589,-1.31719 2.4439434,2.4439434 0 0 1 -0.44964,-1.46531 2.2164768,2.2164768 0 0 1 0.92573,-1.90966 4.0097599,4.0097599 0 0 1 2.43337,-0.66653 3.33794,3.33794 0 0 1 2.39633,0.79878 3.1739524,3.1739524 0 0 1 0.93103,2.15828 l -1.259,0.33327 a 2.7613386,2.7613386 0 0 0 -0.61364,-1.69807 1.8144428,1.8144428 0 0 0 -1.41769,-0.52899 2.1794473,2.1794473 0 0 0 -1.33306,0.3703 1.1584926,1.1584926 0 0 0 -0.48668,0.97334 1.735094,1.735094 0 0 0 0.24863,0.94161 3.2215617,3.2215617 0 0 0 0.91516,0.85167 l 1.98372,1.42828 q 0.52899,0.37559 0.87283,0.65066 a 7.1466829,7.1466829 0 0 1 0.71943,0.69298 2.8935866,2.8935866 0 0 1 0.56602,0.894 3.1739524,3.1739524 0 0 1 0.19573,1.03153 2.332855,2.332855 0 0 1 -0.97334,1.99959 4.3747644,4.3747644 0 0 1 -2.62381,0.70885 z"
     id="path44" />
  <path
     class="cls-2"
     d="m 238.66462,199.87722 c -1.34364,0 -2.31699,-0.33326 -2.90946,-0.9945 -0.59247,-0.66124 -0.88871,-1.80386 -0.88871,-3.41729 v -2.84069 a 6.6441404,6.6441404 0 0 1 0.41791,-2.60793 2.5444519,2.5444519 0 0 1 1.23784,-1.35422 4.940786,4.940786 0 0 1 2.153,-0.39145 5.5544168,5.5544168 0 0 1 1.52349,0.18514 2.8882967,2.8882967 0 0 1 1.05799,0.529 2.3011155,2.3011155 0 0 1 0.66124,0.92573 5.2899207,5.2899207 0 0 1 0.33855,1.29074 13.119003,13.119003 0 0 1 0.0952,1.70865 v 1.01566 h -5.68137 v 1.6822 a 5.2476014,5.2476014 0 0 0 0.42319,2.47568 1.6769049,1.6769049 0 0 0 1.58698,0.71943 1.9837203,1.9837203 0 0 0 1.42299,-0.4708 2.2958256,2.2958256 0 0 0 0.50254,-1.70336 v -0.78291 h 1.74567 v 0.6295 a 3.4648981,3.4648981 0 0 1 -0.85696,2.51801 c -0.59248,0.59247 -1.53408,0.88341 -2.83011,0.88341 z m -1.9943,-6.76581 h 3.9357 v -0.93102 c 0,-0.39675 0,-0.71943 -0.037,-0.98393 a 4.3271551,4.3271551 0 0 0 -0.14812,-0.77233 1.4758879,1.4758879 0 0 0 -0.31739,-0.60305 1.3806693,1.3806693 0 0 0 -0.55545,-0.35442 2.5603216,2.5603216 0 0 0 -0.85696,-0.13225 1.798573,1.798573 0 0 0 -1.58698,0.6295 c -0.30152,0.41791 -0.44964,1.21139 -0.44964,2.38576 z m 1.49705,-5.99877 1.52349,-3.80345 h 1.74039 l -2.38576,3.80345 z"
     id="path46" />
  <path
     class="cls-2"
     d="m 248.5938,203.39502 a 17.879932,17.879932 0 0 1 -1.96785,-0.0952 7.2207418,7.2207418 0 0 1 -1.50234,-0.3121 2.3487248,2.3487248 0 0 1 -0.9945,-0.59247 1.2748709,1.2748709 0 0 1 -0.34385,-0.89929 2.0630691,2.0630691 0 0 1 0.67711,-1.49705 4.9619456,4.9619456 0 0 1 1.65046,-1.08972 3.8246127,3.8246127 0 0 1 -1.1056,-0.41262 c -0.30681,-0.17985 -0.46551,-0.37558 -0.46551,-0.58718 q 0,-0.8887 1.6769,-2.26937 c -1.17436,-0.68769 -1.75625,-1.83561 -1.75625,-3.44374 a 4.6868698,4.6868698 0 0 1 0.23805,-1.51821 3.6606251,3.6606251 0 0 1 0.70356,-1.24313 3.1739524,3.1739524 0 0 1 1.23255,-0.85697 4.5704915,4.5704915 0 0 1 1.74567,-0.30681 c 1.4177,0 2.42279,0.46551 3.02584,1.39654 a 3.0258347,3.0258347 0 0 1 0.76175,-0.67711 4.5175923,4.5175923 0 0 1 1.13733,-0.5766 l 0.37029,-0.12696 0.4761,0.99979 a 7.2101619,7.2101619 0 0 0 -1.30132,0.40733 3.6447554,3.6447554 0 0 0 -1.01567,0.57131 4.0785289,4.0785289 0 0 1 0.31211,0.95218 4.5704915,4.5704915 0 0 1 0.13753,1.01567 4.1949071,4.1949071 0 0 1 -0.93102,2.87771 c -0.62421,0.70885 -1.58698,1.05799 -2.95178,1.05799 a 5.8189128,5.8189128 0 0 1 -0.78291,-0.0582 4.4488233,4.4488233 0 0 1 -0.64008,-0.12167 l -0.26978,0.32269 -0.34385,0.42319 a 3.401419,3.401419 0 0 0 -0.23275,0.365 0.76174858,0.76174858 0 0 0 -0.11638,0.35443 q 0,0.27508 1.17436,0.42848 c 0.16928,0.037 0.56073,0.0952 1.19023,0.16399 0.6295,0.0688 0.97864,0.12167 1.05799,0.13754 a 6.2368165,6.2368165 0 0 1 2.64496,0.86755 1.9890102,1.9890102 0 0 1 0.8887,1.7298 2.1159683,2.1159683 0 0 1 -1.17436,1.97843 6.7658086,6.7658086 0 0 1 -3.20569,0.63479 z m -0.0265,-1.13733 a 5.4909377,5.4909377 0 0 0 2.18474,-0.35972 1.1479128,1.1479128 0 0 0 0.79877,-1.05798 1.0579841,1.0579841 0 0 0 -0.52899,-0.95748 6.1627576,6.1627576 0 0 0 -2.11597,-0.57131 l -1.80386,-0.19044 c -1.18494,0.58719 -1.7827,1.23256 -1.7827,1.93083 a 0.9945051,0.9945051 0 0 0 0.76175,0.93631 7.7232842,7.7232842 0 0 0 2.48626,0.26979 z m -0.16399,-7.10437 a 2.6449604,2.6449604 0 0 0 1.03154,-0.17985 1.7298041,1.7298041 0 0 0 0.67711,-0.45494 2.1159683,2.1159683 0 0 0 0.38087,-0.68769 3.7029445,3.7029445 0 0 0 0.18515,-0.7829 7.8185028,7.8185028 0 0 0 0.0423,-0.8411 c 0,-1.93611 -0.76704,-2.90946 -2.30641,-2.90946 a 2.5180023,2.5180023 0 0 0 -0.98921,0.18515 1.9255311,1.9255311 0 0 0 -0.68769,0.4708 2.1741574,2.1741574 0 0 0 -0.41791,0.68769 3.1739524,3.1739524 0 0 0 -0.21159,0.77233 5.4010091,5.4010091 0 0 0 -0.0529,0.79349 c 0,1.95727 0.78291,2.94648 2.34872,2.94648 z"
     id="path48" />
  <path
     class="cls-2"
     d="m 255.42309,186.89047 v -1.93611 h 1.79328 v 1.93611 z m 0,12.8069 v -11.25696 h 1.7827 v 11.25696 z"
     id="path50" />
  <path
     class="cls-2"
     d="m 266.05054,199.69737 v -10.22013 h -1.82503 v -1.05799 h 1.82503 v -1.14791 c 0,-0.3121 0,-0.5766 0.0317,-0.79878 a 4.0309196,4.0309196 0 0 1 0.12166,-0.6824 1.5552367,1.5552367 0 0 1 0.25921,-0.58189 1.867342,1.867342 0 0 1 1.15849,-0.70885 5.0254247,5.0254247 0 0 1 0.99451,-0.0899 9.1991721,9.1991721 0 0 1 1.43886,0.12695 v 1.05799 c -0.56073,-0.0741 -0.894,-0.1058 -0.9998,-0.1058 a 1.1161733,1.1161733 0 0 0 -0.9945,0.365 2.4069139,2.4069139 0 0 0 -0.23805,1.24842 v 1.32248 h 2.27996 v 1.05799 h -2.27996 v 10.22013 z"
     id="path52" />
  <path
     class="cls-2"
     d="m 275.20739,199.87722 q -2.01546,0 -2.90946,-0.9945 -0.89399,-0.99451 -0.8887,-3.41729 v -2.84069 a 6.6335606,6.6335606 0 0 1 0.42319,-2.60793 2.5550317,2.5550317 0 0 1 1.23255,-1.35422 4.9831053,4.9831053 0 0 1 2.15829,-0.39145 5.4909377,5.4909377 0 0 1 1.51821,0.18514 2.9570657,2.9570657 0 0 1 1.05798,0.529 2.2905357,2.2905357 0 0 1 0.65595,0.92573 5.073034,5.073034 0 0 1 0.33856,1.29074 13.119003,13.119003 0 0 1 0.0952,1.70865 v 1.01566 h -5.7184 v 1.6822 a 5.1841223,5.1841223 0 0 0 0.42319,2.47568 1.6716149,1.6716149 0 0 0 1.58698,0.71943 1.9890102,1.9890102 0 0 0 1.42828,-0.4708 2.3011155,2.3011155 0 0 0 0.49725,-1.70336 v -0.78291 h 1.74568 v 0.6295 a 3.4648981,3.4648981 0 0 1 -0.85697,2.51801 c -0.55015,0.59247 -1.48647,0.88341 -2.78779,0.88341 z m -2.03662,-6.76581 h 3.93041 v -0.93102 c 0,-0.39675 0,-0.71943 -0.037,-0.98393 a 3.9039615,3.9039615 0 0 0 -0.14812,-0.77233 1.470598,1.470598 0 0 0 -0.3121,-0.60305 1.4388584,1.4388584 0 0 0 -0.56073,-0.35442 2.5603216,2.5603216 0 0 0 -0.85697,-0.13225 1.798573,1.798573 0 0 0 -1.58698,0.6295 c -0.29623,0.41791 -0.44435,1.21139 -0.44435,2.38576 z"
     id="path54" />
  <path
     class="cls-2"
     d="M 281.52885,199.69737 V 183.9334 h 1.79328 v 15.76397 z"
     id="path56" />
  <path
     class="cls-2"
     d="m 288.63321,199.87722 a 2.9041665,2.9041665 0 0 1 -2.03133,-0.72472 2.332855,2.332855 0 0 1 -0.79878,-1.80386 3.803453,3.803453 0 0 1 0.12167,-0.99979 2.2164768,2.2164768 0 0 1 0.44435,-0.83581 4.6128109,4.6128109 0 0 1 0.71414,-0.68769 5.670795,5.670795 0 0 1 1.09502,-0.63479 c 0.47609,-0.22747 0.95218,-0.43378 1.42827,-0.62421 0.4761,-0.19044 1.09502,-0.4232 1.86206,-0.69298 v -0.80936 a 4.3906342,4.3906342 0 0 0 -0.36501,-2.11597 1.5182072,1.5182072 0 0 0 -1.38067,-0.58189 q -1.94669,0 -1.94669,1.93082 v 0.40733 l -1.75625,-0.0476 a 2.4280736,2.4280736 0 0 1 0,-0.34385 2.8830068,2.8830068 0 0 1 1.03153,-2.30111 4.5017225,4.5017225 0 0 1 2.75605,-0.71943 q 1.86205,0 2.64496,0.88341 0.78291,0.88342 0.81994,2.80366 v 5.47507 a 15.160913,15.160913 0 0 0 0.13225,2.23235 h -1.58698 l -0.25921,-1.58698 a 2.8142378,2.8142378 0 0 1 -1.08972,1.24313 3.2427214,3.2427214 0 0 1 -1.8356,0.53428 z m 0.58189,-1.22197 a 2.3434349,2.3434349 0 0 0 1.3119,-0.39674 3.1739524,3.1739524 0 0 0 0.94161,-0.93632 v -3.50722 l -0.22747,0.0952 -0.88871,0.38088 c -0.2063,0.0846 -0.45493,0.19572 -0.74059,0.32797 -0.28565,0.13225 -0.52899,0.24863 -0.65066,0.33327 -0.12166,0.0846 -0.30681,0.19572 -0.49196,0.32268 a 1.7456738,1.7456738 0 0 0 -0.40203,0.35972 3.4966376,3.4966376 0 0 0 -0.25392,0.38616 1.3277701,1.3277701 0 0 0 -0.17986,0.46022 2.7507588,2.7507588 0 0 0 -0.0476,0.529 1.534077,1.534077 0 0 0 0.46552,1.23255 1.6980646,1.6980646 0 0 0 1.16378,0.41261 z"
     id="path58" />
  <path
     class="cls-2"
     d="m 298.98558,199.87722 q -1.81973,0 -2.60264,-1.08972 -0.78291,-1.08972 -0.79349,-3.63418 v -2.08422 a 13.531617,13.531617 0 0 1 0.0846,-1.63459 5.8876818,5.8876818 0 0 1 0.30682,-1.32248 2.9147463,2.9147463 0 0 1 0.59776,-1.00509 2.5127123,2.5127123 0 0 1 0.9469,-0.61363 3.8775119,3.8775119 0 0 1 1.38066,-0.22217 3.7029445,3.7029445 0 0 1 2.48098,0.97863 v -5.31637 h 1.7827 v 15.76397 h -1.7827 v -0.79878 a 3.5230872,3.5230872 0 0 1 -2.40163,0.97863 z m 0.35972,-1.13204 a 3.4067089,3.4067089 0 0 0 2.04191,-0.74059 v -7.81321 a 3.5072174,3.5072174 0 0 0 -2.08952,-0.79878 1.5869762,1.5869762 0 0 0 -1.52879,0.75646 5.6337656,5.6337656 0 0 0 -0.39674,2.4651 v 2.64496 a 6.4166738,6.4166738 0 0 0 0.40203,2.64496 1.5869762,1.5869762 0 0 0 1.57111,0.8411 z"
     id="path60" />
  <path
     class="cls-2"
     d="m 308.32229,199.87722 a 2.9041665,2.9041665 0 0 1 -2.03133,-0.72472 2.3487248,2.3487248 0 0 1 -0.79348,-1.80386 3.8140328,3.8140328 0 0 1 0.11637,-0.99979 2.2164768,2.2164768 0 0 1 0.44436,-0.83581 4.8614371,4.8614371 0 0 1 0.71414,-0.68769 5.9088414,5.9088414 0 0 1 1.1003,-0.63479 c 0.47609,-0.22747 0.9469,-0.43378 1.42299,-0.62421 0.47609,-0.19044 1.1003,-0.4232 1.86734,-0.69298 v -0.80936 a 4.3747644,4.3747644 0 0 0 -0.37029,-2.11597 1.5023375,1.5023375 0 0 0 -1.37538,-0.58189 q -1.95198,0 -1.95198,1.93082 v 0.40733 l -1.75626,-0.0476 c 0,-0.18515 0,-0.29624 0,-0.34385 a 2.8988766,2.8988766 0 0 1 1.05799,-2.30111 4.4805628,4.4805628 0 0 1 2.74547,-0.7353 q 1.86734,0 2.64496,0.88341 0.77761,0.88342 0.7829,2.8354 v 5.47507 a 15.933241,15.933241 0 0 0 0.13225,2.23235 h -1.58697 l -0.2645,-1.58698 a 2.7983681,2.7983681 0 0 1 -1.07385,1.26958 3.2744609,3.2744609 0 0 1 -1.82503,0.49196 z m 0.58189,-1.22197 a 2.3169853,2.3169853 0 0 0 1.31191,-0.39674 3.1739524,3.1739524 0 0 0 0.94689,-0.93632 v -3.50722 a 2.2111869,2.2111869 0 0 0 -0.22747,0.0952 l -0.8887,0.38088 c -0.20631,0.0846 -0.45494,0.19572 -0.74588,0.32797 -0.29095,0.13225 -0.50254,0.24863 -0.64537,0.33327 -0.14283,0.0846 -0.30682,0.19572 -0.49196,0.32268 a 1.7879932,1.7879932 0 0 0 -0.40733,0.35972 c -0.0794,0.11109 -0.16399,0.23804 -0.25391,0.38616 a 1.3171903,1.3171903 0 0 0 -0.17457,0.46022 2.7507588,2.7507588 0 0 0 -0.0476,0.529 1.5499468,1.5499468 0 0 0 0.46022,1.23255 1.7033545,1.7033545 0 0 0 1.16378,0.41261 z"
     id="path62" />
  <path
     class="cls-2"
     d="m 318.88098,199.84019 c -0.95748,0 -1.61872,-0.21159 -1.98372,-0.6295 a 2.7930781,2.7930781 0 0 1 -0.55545,-1.85147 v -7.96662 h -1.69806 v -0.95219 h 1.69806 v -3.48076 h 1.79329 v 3.48076 h 2.34343 v 0.95219 h -2.34343 v 7.83437 a 1.9625606,1.9625606 0 0 0 0.25391,1.17437 1.2378414,1.2378414 0 0 0 1.00509,0.31739 7.1837123,7.1837123 0 0 0 0.99979,-0.0741 v 1.05799 a 10.172518,10.172518 0 0 1 -1.51291,0.13753 z"
     id="path64" />
  <path
     class="cls-2"
     d="m 327.65695,199.60215 a 6.141598,6.141598 0 0 1 -3.63417,0 2.5232922,2.5232922 0 0 1 -1.15849,-0.83581 3.4913477,3.4913477 0 0 1 -0.59777,-1.31719 8.1623477,8.1623477 0 0 1 -0.17985,-1.81973 v -3.12106 c 0,-1.42827 0.28036,-2.49684 0.83051,-3.17395 0.55016,-0.67711 1.52879,-1.05798 2.92533,-1.05798 1.39654,0 2.37518,0.34384 2.92533,1.05798 0.55015,0.71414 0.82522,1.75625 0.82522,3.17395 v 3.12106 a 8.1940872,8.1940872 0 0 1 -0.17456,1.81973 3.5812763,3.5812763 0 0 1 -0.60305,1.31719 2.4968426,2.4968426 0 0 1 -1.1585,0.83581 z m -1.81444,-0.79878 a 2.3645946,2.3645946 0 0 0 0.89929,-0.15341 1.5446568,1.5446568 0 0 0 0.5766,-0.39674 1.6134258,1.6134258 0 0 0 0.31739,-0.67711 5.4962276,5.4962276 0 0 0 0.13754,-0.83581 c 0,-0.2645 0,-0.60834 0,-1.05798 v -3.26917 c 0,-0.4232 0,-0.77233 0,-1.05799 a 5.607316,5.607316 0 0 0 -0.13754,-0.83581 1.6504553,1.6504553 0 0 0 -0.31739,-0.67711 1.5393669,1.5393669 0 0 0 -0.5766,-0.39145 2.2640861,2.2640861 0 0 0 -0.89929,-0.1587 2.8565572,2.8565572 0 0 0 -0.78291,0.0952 1.2537112,1.2537112 0 0 0 -0.52899,0.31211 1.9837203,1.9837203 0 0 0 -0.34384,0.45493 2.0577792,2.0577792 0 0 0 -0.19573,0.6295 c -0.0423,0.25921 -0.0688,0.52899 -0.0846,0.74059 -0.0159,0.2116 0,0.52899 0,0.86755 v 3.29033 q 0,0.52899 0,0.87283 c 0,0.23276 0.0423,0.4761 0.0846,0.7353 a 2.1424179,2.1424179 0 0 0 0.19573,0.63479 2.1159683,2.1159683 0 0 0 0.34384,0.45494 1.2431314,1.2431314 0 0 0 0.52899,0.30681 2.8565572,2.8565572 0 0 0 0.78291,0.11638 z"
     id="path66" />
  <path
     class="cls-2"
     d="m 332.06346,199.6815 v -15.76397 h 1.7827 v 10.01911 l 4.69216,-5.49623 h 1.89908 l -3.54953,4.34832 3.37496,6.90864 h -1.7827 l -2.95706,-6.13102 -1.67691,1.86205 v 4.23194 z"
     id="path68" />
  <path
     class="cls-2"
     d="m 341.99264,201.97203 -0.36501,-0.6295 a 2.1159683,2.1159683 0 0 0 0.894,-0.66653 1.6451653,1.6451653 0 0 0 0.26979,-0.97863 h -1.05799 v -2.11597 h 1.9943 v 1.96785 a 2.5285821,2.5285821 0 0 1 -0.39145,1.49705 2.9623556,2.9623556 0 0 1 -1.34364,0.92573 z"
     id="path70" />
  <path
     class="cls-2"
     d="m 354.67787,199.87722 c -1.34364,0 -2.31699,-0.33326 -2.90946,-0.9945 -0.59247,-0.66124 -0.8887,-1.80386 -0.8887,-3.41729 v -2.84069 a 6.6441404,6.6441404 0 0 1 0.4179,-2.60793 2.5444519,2.5444519 0 0 1 1.23784,-1.35422 4.940786,4.940786 0 0 1 2.153,-0.39145 5.5279672,5.5279672 0 0 1 1.5235,0.18514 2.8882967,2.8882967 0 0 1 1.05798,0.529 2.3011155,2.3011155 0 0 1 0.66124,0.92573 5.073034,5.073034 0 0 1 0.33856,1.29074 13.119003,13.119003 0 0 1 0.0952,1.70865 v 1.01566 h -5.70782 v 1.6822 a 5.2476014,5.2476014 0 0 0 0.42319,2.47568 1.6769049,1.6769049 0 0 0 1.58698,0.71943 1.9731404,1.9731404 0 0 0 1.42299,-0.4708 2.2958256,2.2958256 0 0 0 0.52899,-1.70336 v -0.78291 h 1.71922 v 0.6295 a 3.4648981,3.4648981 0 0 1 -0.85696,2.51801 c -0.57131,0.59247 -1.50234,0.88341 -2.80366,0.88341 z m -2.02075,-6.76581 h 3.9357 v -0.93102 c 0,-0.39675 0,-0.71943 -0.037,-0.98393 a 4.3271551,4.3271551 0 0 0 -0.14812,-0.77233 1.4124088,1.4124088 0 0 0 -0.31739,-0.60305 1.3806693,1.3806693 0 0 0 -0.52899,-0.35442 2.5603216,2.5603216 0 0 0 -0.85697,-0.13225 1.798573,1.798573 0 0 0 -1.58698,0.6295 c -0.29623,0.41791 -0.44964,1.21139 -0.44964,2.38576 z"
     id="path72" />
  <path
     class="cls-2"
     d="m 364.60705,203.39502 a 17.774134,17.774134 0 0 1 -1.96256,-0.0952 7.1466829,7.1466829 0 0 1 -1.50234,-0.3121 2.338145,2.338145 0 0 1 -0.99979,-0.59247 1.2748709,1.2748709 0 0 1 -0.34385,-0.89929 2.0842288,2.0842288 0 0 1 0.67711,-1.49705 4.9619456,4.9619456 0 0 1 1.65046,-1.08972 3.8246127,3.8246127 0 0 1 -1.1056,-0.41262 q -0.46022,-0.26978 -0.46022,-0.58718 0,-0.8887 1.67162,-2.26937 -1.77742,-1.01567 -1.77742,-3.44374 a 4.6868698,4.6868698 0 0 1 0.23805,-1.51821 3.7505538,3.7505538 0 0 1 0.70356,-1.24313 3.1739524,3.1739524 0 0 1 1.23255,-0.85697 4.5704915,4.5704915 0 0 1 1.74567,-0.30681 c 1.4177,0 2.42279,0.46551 3.02584,1.39654 a 3.1263431,3.1263431 0 0 1 0.76175,-0.67711 4.4594032,4.4594032 0 0 1 1.14262,-0.5766 l 0.365,-0.12696 0.4761,0.99979 a 7.4799479,7.4799479 0 0 0 -1.30132,0.40733 3.6447554,3.6447554 0 0 0 -1.01567,0.57131 4.0520793,4.0520793 0 0 1 0.3174,0.95218 4.8508573,4.8508573 0 0 1 0.13225,1.01567 4.1949071,4.1949071 0 0 1 -0.93103,2.87771 c -0.61892,0.70885 -1.58698,1.05799 -2.95178,1.05799 a 5.8189128,5.8189128 0 0 1 -0.7829,-0.0582 4.4488233,4.4488233 0 0 1 -0.64009,-0.12167 l -0.26978,0.32269 -0.34385,0.42319 a 3.401419,3.401419 0 0 0 -0.23275,0.365 0.76174858,0.76174858 0 0 0 -0.11638,0.35443 q 0,0.27508 1.17436,0.42848 c 0.16928,0.037 0.56073,0.0952 1.19023,0.16399 0.6295,0.0688 0.97864,0.12167 1.05799,0.13754 a 6.2368165,6.2368165 0 0 1 2.64496,0.86755 1.9890102,1.9890102 0 0 1 0.8887,1.7298 2.1159683,2.1159683 0 0 1 -1.17436,1.97843 6.7552288,6.7552288 0 0 1 -3.18453,0.63479 z m 0,-1.13733 a 5.4644881,5.4644881 0 0 0 2.17945,-0.35972 1.1479128,1.1479128 0 0 0 0.79878,-1.05798 1.0579841,1.0579841 0 0 0 -0.529,-0.95748 6.1257282,6.1257282 0 0 0 -2.11596,-0.57131 l -1.80916,-0.19044 c -1.18494,0.58719 -1.7827,1.23256 -1.7827,1.93083 a 0.9945051,0.9945051 0 0 0 0.76175,0.93631 7.739154,7.739154 0 0 0 2.47568,0.26979 z m -0.19044,-7.10437 a 2.7084394,2.7084394 0 0 0 1.05799,-0.17985 1.7086444,1.7086444 0 0 0 0.67182,-0.45494 2.1159683,2.1159683 0 0 0 0.38087,-0.68769 3.7029445,3.7029445 0 0 0 0.18515,-0.7829 7.8185028,7.8185028 0 0 0 0.0423,-0.8411 c 0,-1.93611 -0.76704,-2.90946 -2.30641,-2.90946 a 2.5391619,2.5391619 0 0 0 -0.98921,0.18515 1.9255311,1.9255311 0 0 0 -0.68769,0.4708 2.2746659,2.2746659 0 0 0 -0.41791,0.68769 3.1739524,3.1739524 0 0 0 -0.21159,0.77233 5.4010091,5.4010091 0 0 0 -0.0529,0.79349 c -0.0212,1.95727 0.76175,2.94648 2.32756,2.94648 z"
     id="path74" />
  <path
     class="cls-2"
     d="m 370.85445,202.50102 v -1.11088 a 8.6437305,8.6437305 0 0 0 1.92553,-0.1587 1.2537112,1.2537112 0 0 0 0.80936,-0.46022 1.1637826,1.1637826 0 0 0 0.11637,-0.49196 1.8937916,1.8937916 0 0 0 -0.0265,-0.36501 q -0.0582,-0.34913 -0.41261,-1.55523 -0.28566,-0.94161 -1.55524,-5.28992 c -0.85167,-2.91475 -1.29603,-4.44883 -1.34364,-4.60224 h 1.78271 l 2.44394,9.57476 2.35402,-9.57476 h 1.79328 l -3.412,12.06631 a 2.3434349,2.3434349 0 0 1 -1.25371,1.53408 6.4589932,6.4589932 0 0 1 -2.74547,0.46022 z"
     id="path76" />
  <path
     class="cls-2"
     d="m 388.80315,199.84019 c -0.96277,0 -1.62401,-0.21159 -1.98372,-0.6295 a 2.8195277,2.8195277 0 0 1 -0.56073,-1.85147 v -7.96662 h -1.69807 v -0.95219 h 1.69807 v -3.48076 h 1.7827 v 3.48076 h 2.33814 v 0.95219 h -2.33814 v 7.83437 a 2.0101699,2.0101699 0 0 0 0.24863,1.17437 1.2431314,1.2431314 0 0 0 1.01037,0.31739 7.3000906,7.3000906 0 0 0 0.9998,-0.0741 v 1.05799 a 10.230707,10.230707 0 0 1 -1.49705,0.13753 z"
     id="path78" />
  <path
     class="cls-2"
     d="m 395.807,199.87722 c -1.34364,0 -2.31698,-0.33326 -2.90945,-0.9945 -0.59247,-0.66124 -0.88871,-1.80386 -0.88871,-3.41729 v -2.84069 a 6.538342,6.538342 0 0 1 0.42319,-2.60793 2.533872,2.533872 0 0 1 1.23255,-1.35422 4.9672356,4.9672356 0 0 1 2.15829,-0.39145 5.4909377,5.4909377 0 0 1 1.51821,0.18514 2.8882967,2.8882967 0 0 1 1.05798,0.529 2.3011155,2.3011155 0 0 1 0.66124,0.92573 5.073034,5.073034 0 0 1 0.33856,1.29074 13.119003,13.119003 0 0 1 0.0952,1.70865 v 1.01566 h -5.71312 v 1.6822 a 5.2899207,5.2899207 0 0 0 0.41791,2.47568 1.6769049,1.6769049 0 0 0 1.58697,0.71943 1.9890102,1.9890102 0 0 0 1.42828,-0.4708 2.3222752,2.3222752 0 0 0 0.49725,-1.70336 v -0.78291 h 1.74568 v 0.6295 a 3.4648981,3.4648981 0 0 1 -0.85697,2.51801 c -0.56073,0.59247 -1.49176,0.88341 -2.79308,0.88341 z m -2.02604,-6.76581 h 3.93041 v -0.93102 c 0,-0.39675 0,-0.71943 -0.037,-0.98393 a 3.9039615,3.9039615 0 0 0 -0.14811,-0.77233 1.470598,1.470598 0 0 0 -0.31211,-0.60305 1.4388584,1.4388584 0 0 0 -0.56073,-0.35442 2.5603216,2.5603216 0 0 0 -0.85697,-0.13225 1.798573,1.798573 0 0 0 -1.58697,0.6295 c -0.29624,0.41791 -0.44436,1.21139 -0.44436,2.38576 z"
     id="path80" />
  <path
     class="cls-2"
     d="m 405.21248,199.84019 c -0.95747,0 -1.61871,-0.21159 -1.97843,-0.6295 a 2.8195277,2.8195277 0 0 1 -0.56073,-1.85147 v -7.96662 h -1.69806 v -0.95219 h 1.69806 v -3.48076 h 1.7827 v 3.48076 h 2.33815 v 0.95219 h -2.33815 v 7.83437 a 2.0101699,2.0101699 0 0 0 0.24863,1.17437 1.2431314,1.2431314 0 0 0 1.01037,0.31739 7.1678426,7.1678426 0 0 0 0.99451,-0.0741 v 1.05799 a 10.114328,10.114328 0 0 1 -1.49705,0.13753 z"
     id="path82" />
  <path
     class="cls-2"
     d="m 413.99375,199.60215 a 6.141598,6.141598 0 0 1 -3.63418,0 2.4968426,2.4968426 0 0 1 -1.15849,-0.83581 3.5812763,3.5812763 0 0 1 -0.60305,-1.31719 8.1940872,8.1940872 0 0 1 -0.17457,-1.81973 v -3.12106 c 0,-1.42827 0.27508,-2.49684 0.83052,-3.17395 0.55544,-0.67711 1.52879,-1.05798 2.92004,-1.05798 1.39125,0 2.38046,0.34384 2.93061,1.05798 0.55016,0.71414 0.82523,1.75625 0.82523,3.17395 v 3.12106 a 8.1623477,8.1623477 0 0 1 -0.17986,1.81973 3.4913477,3.4913477 0 0 1 -0.59776,1.31719 2.5232922,2.5232922 0 0 1 -1.15849,0.83581 z m -1.81973,-0.79878 a 2.3910442,2.3910442 0 0 0 0.90457,-0.15341 1.5869762,1.5869762 0 0 0 0.57661,-0.39674 1.5499468,1.5499468 0 0 0 0.3121,-0.67711 4.9090464,4.9090464 0 0 0 0.13754,-0.83581 c 0,-0.2645 0.0317,-0.60834 0.0317,-1.05798 v -3.26917 c 0,-0.4232 0,-0.77233 -0.0317,-1.05799 a 4.9989751,4.9989751 0 0 0 -0.13754,-0.83581 1.3436399,1.3436399 0 0 0 -0.88871,-1.05798 2.2905357,2.2905357 0 0 0 -0.90457,-0.1587 2.8565572,2.8565572 0 0 0 -0.78291,0.0952 1.2325515,1.2325515 0 0 0 -0.52899,0.31211 1.8408924,1.8408924 0 0 0 -0.34385,0.45493 1.9202412,1.9202412 0 0 0 -0.19573,0.6295 5.4803579,5.4803579 0 0 0 -0.0846,0.74059 c 0,0.22746 0,0.52899 0,0.86755 v 3.27975 c 0,0.34913 0,0.64008 0,0.87283 a 5.4115889,5.4115889 0 0 0 0.0846,0.7353 1.99959,1.99959 0 0 0 0.19573,0.63479 1.9466908,1.9466908 0 0 0 0.34385,0.45494 1.2272616,1.2272616 0 0 0 0.52899,0.30681 2.8565572,2.8565572 0 0 0 0.78291,0.11638 z m -1.7351,-11.69073 0.94161,-3.12105 h 1.58698 l -1.58698,3.12105 z m 2.49685,0 1.35422,-3.12105 h 1.92553 l -2.33286,3.12105 z"
     id="path84" />
  <path
     class="cls-2"
     d="m 425.7744,199.87722 a 2.9041665,2.9041665 0 0 1 -2.03133,-0.72472 2.3487248,2.3487248 0 0 1 -0.79348,-1.80386 3.8140328,3.8140328 0 0 1 0.11637,-0.99979 2.2164768,2.2164768 0 0 1 0.44436,-0.83581 4.6128109,4.6128109 0 0 1 0.71414,-0.68769 5.9088414,5.9088414 0 0 1 1.1003,-0.63479 c 0.4708,-0.22747 0.9469,-0.43378 1.42299,-0.62421 0.47609,-0.19044 1.09501,-0.4232 1.86734,-0.69298 v -0.80936 a 4.3747644,4.3747644 0 0 0 -0.37029,-2.11597 1.5023375,1.5023375 0 0 0 -1.37538,-0.58189 q -1.95198,0 -1.95198,1.93082 v 0.40733 l -1.75626,-0.0476 c 0,-0.18515 0,-0.29624 0,-0.34385 a 2.8988766,2.8988766 0 0 1 1.05799,-2.30111 4.4752729,4.4752729 0 0 1 2.75076,-0.71943 q 1.86734,0 2.64496,0.88341 0.77761,0.88342 0.7829,2.8354 v 5.47507 a 15.933241,15.933241 0 0 0 0.13225,2.23235 h -1.58697 l -0.25921,-1.58698 a 2.7983681,2.7983681 0 0 1 -1.08443,1.24313 3.2744609,3.2744609 0 0 1 -1.82503,0.50254 z m 0.58189,-1.22197 a 2.3169853,2.3169853 0 0 0 1.31191,-0.39674 3.1739524,3.1739524 0 0 0 0.94689,-0.93632 v -3.50722 a 2.2111869,2.2111869 0 0 0 -0.22747,0.0952 l -0.8887,0.38088 c -0.20631,0.0846 -0.45494,0.19572 -0.74588,0.32797 -0.29095,0.13225 -0.52899,0.24863 -0.64537,0.33327 -0.11638,0.0846 -0.30682,0.19572 -0.49196,0.32268 a 1.6769049,1.6769049 0 0 0 -0.40733,0.35972 4.4594032,4.4594032 0 0 0 -0.25391,0.38616 1.4388584,1.4388584 0 0 0 -0.17986,0.46022 2.7507588,2.7507588 0 0 0 -0.0476,0.529 1.5552367,1.5552367 0 0 0 0.46551,1.23255 1.7033545,1.7033545 0 0 0 1.16378,0.41261 z"
     id="path86" />
  <path
     class="cls-2"
     d="M 433.24377,199.69737 V 183.9334 h 1.79857 v 15.76397 z"
     id="path88" />
  <path
     class="cls-2"
     d="m 440.33227,199.87722 a 2.9041665,2.9041665 0 0 1 -2.03133,-0.72472 2.3540147,2.3540147 0 0 1 -0.79878,-1.80386 3.803453,3.803453 0 0 1 0.12167,-0.99979 2.2164768,2.2164768 0 0 1 0.44435,-0.83581 4.6128109,4.6128109 0 0 1 0.71414,-0.68769 5.8189128,5.8189128 0 0 1 1.09501,-0.63479 c 0.47609,-0.22747 0.95219,-0.43378 1.42828,-0.62421 0.47609,-0.19044 1.09501,-0.4232 1.86205,-0.69298 v -0.80936 a 4.3906342,4.3906342 0 0 0 -0.365,-2.11597 1.5129173,1.5129173 0 0 0 -1.38067,-0.58189 q -1.94669,0 -1.94669,1.93082 v 0.40733 l -1.75626,-0.0476 c 0,-0.18515 0,-0.29624 0,-0.34385 a 2.9147463,2.9147463 0 0 1 1.03154,-2.30111 4.5017225,4.5017225 0 0 1 2.75605,-0.71943 q 1.86734,0 2.64496,0.88341 0.77762,0.88342 0.78291,2.8354 v 5.47507 a 15.160913,15.160913 0 0 0 0.13224,2.23235 h -1.58697 l -0.25921,-1.58698 a 2.8142378,2.8142378 0 0 1 -1.08972,1.24313 3.2427214,3.2427214 0 0 1 -1.79857,0.50254 z m 0.58189,-1.22197 a 2.332855,2.332855 0 0 0 1.3119,-0.39674 3.1739524,3.1739524 0 0 0 0.9416,-0.93632 v -3.50722 l -0.22217,0.0952 -0.894,0.38088 c -0.20631,0.0846 -0.44964,0.19572 -0.74059,0.32797 -0.29095,0.13225 -0.52899,0.24863 -0.64537,0.33327 -0.11638,0.0846 -0.30682,0.19572 -0.49196,0.32268 a 1.6769049,1.6769049 0 0 0 -0.40733,0.35972 3.4966376,3.4966376 0 0 0 -0.25391,0.38616 1.3277701,1.3277701 0 0 0 -0.17986,0.46022 2.7507588,2.7507588 0 0 0 -0.0476,0.529 1.534077,1.534077 0 0 0 0.46551,1.23255 1.7033545,1.7033545 0 0 0 1.17966,0.41261 z"
     id="path90" />
  <path
     class="cls-2"
     d="m 450.91211,199.84019 c -0.95748,0 -1.61872,-0.21159 -1.98372,-0.6295 a 2.8195277,2.8195277 0 0 1 -0.56074,-1.85147 v -7.96662 h -1.68748 v -0.95219 h 1.69806 v -3.48076 h 1.78271 v 3.48076 h 2.33814 v 0.95219 h -2.33814 v 7.83437 a 2.0101699,2.0101699 0 0 0 0.24862,1.17437 1.2537112,1.2537112 0 0 0 1.01038,0.31739 7.2419015,7.2419015 0 0 0 0.99979,-0.0741 v 1.05799 a 10.230707,10.230707 0 0 1 -1.50762,0.13753 z"
     id="path92" />
  <path
     class="cls-2"
     d="m 457.70965,199.84019 c -0.95747,0 -1.61871,-0.21159 -1.98372,-0.6295 a 2.8195277,2.8195277 0 0 1 -0.55544,-1.85147 v -7.96662 h -1.69806 v -0.95219 h 1.69806 v -3.48076 h 1.78271 v 3.48076 h 2.33814 v 0.95219 h -2.33814 v 7.83437 a 1.9731404,1.9731404 0 0 0 0.24862,1.17437 1.2431314,1.2431314 0 0 0 1.01038,0.31739 7.1678426,7.1678426 0 0 0 0.9945,-0.0741 v 1.05799 a 10.114328,10.114328 0 0 1 -1.49705,0.13753 z"
     id="path94" />
  <polygon
     class="cls-1"
     points="500,337.79 500,287.42 279.36,483.13 "
     id="polygon96"
     transform="matrix(1.4633771,0,0,0.72138495,-408.80903,-207.34046)" />
  <polygon
     class="cls-1"
     points="500,337.79 500,287.42 720.64,483.13 "
     id="polygon98"
     transform="matrix(1.4633771,0,0,0.72138495,-408.80903,-207.34046)" />
  <rect
     class="cls-1"
     x="325.76328"
     y="73.697899"
     width="19.162878"
     height="18.31653"
     rx="3.4919658"
     id="rect100"
     style="stroke-width:0.699586" />
  <rect
     class="cls-1"
     x="300.83295"
     y="73.697899"
     width="19.162878"
     height="18.31653"
     rx="3.4919658"
     id="rect102"
     style="stroke-width:0.699586" />
  <rect
     class="cls-1"
     x="300.83295"
     y="97.527184"
     width="19.162878"
     height="18.31653"
     rx="3.4919658"
     id="rect104"
     style="stroke-width:0.699586" />
  <rect
     class="cls-1"
     x="325.76328"
     y="97.527184"
     width="19.162878"
     height="18.31653"
     rx="3.4919658"
     id="rect106"
     style="stroke-width:0.699586" />
</svg>
